<?xml version="1.0" encoding="utf-8"?>
<!-- Generator: Adobe Illustrator 19.0.0, SVG Export Plug-In . SVG Version: 6.00 Build 0)  -->
<svg version="1.1" id="Layer_1" xmlns="http://www.w3.org/2000/svg" xmlns:xlink="http://www.w3.org/1999/xlink" x="0px" y="0px"
	 viewBox="1035.3 520.8 509.1 106.6" style="enable-background:new 1035.3 520.8 509.1 106.6;" xml:space="preserve">
<style type="text/css">
	.st0{enable-background:new    ;}
	.st1{fill:#D82C20;}
	.st2{fill:#1F83C5;}
	.st3{fill:#C030ED;}
	.st4{fill:#1ED760;}
</style>
<g class="st0">
	<path d="M1167.2,584.8h-42.5c0.8,3.9,2.5,6.8,5.1,8.9c2.6,2.1,5.8,3.1,9.8,3.1c2.9,0,5.5-0.5,7.7-1.5c2.3-1,4.6-2.6,7.1-4.8
		l9.9,8.8c-6.2,7.6-14.5,11.4-25,11.4c-6.1,0-11.5-1.3-16.4-4c-4.8-2.7-8.6-6.4-11.4-11.2s-4.2-10.3-4.2-16.4v-0.2
		c0-5.8,1.3-11.1,3.9-16s6.2-8.7,10.8-11.6c4.6-2.8,9.8-4.3,15.6-4.3c6.5,0,12,1.5,16.5,4.6c4.4,3,7.8,7.1,10,12.1
		s3.3,10.5,3.3,16.5v0.2C1167.4,581.3,1167.3,582.7,1167.2,584.8z M1146.4,564.6c-2.2-2.4-5.1-3.5-8.7-3.5c-3.5,0-6.4,1.2-8.7,3.5
		s-3.8,5.5-4.5,9.5h26.1C1150,570.1,1148.6,566.9,1146.4,564.6z"/>
</g>
<g class="st0">
	<path d="M1317.9,592.8c-2.9,4.9-6.9,8.7-11.9,11.6c-5.1,2.8-10.7,4.3-16.9,4.3s-11.8-1.4-16.8-4.2c-5.1-2.8-9-6.6-11.9-11.5
		c-2.8-4.8-4.3-10.1-4.3-15.9v-0.2c0-5.8,1.4-11.1,4.3-16s6.9-8.7,11.9-11.6c5.1-2.8,10.7-4.3,16.9-4.3c6.2,0,11.8,1.4,16.8,4.2
		c5.1,2.8,9,6.6,11.8,11.5c2.8,4.8,4.3,10.1,4.3,15.9v0.2C1322.2,582.6,1320.8,588,1317.9,592.8z M1303.1,568.5
		c-1.4-2.5-3.3-4.6-5.7-6.2c-2.4-1.6-5.2-2.3-8.3-2.3c-4.8,0-8.6,1.6-11.5,4.8s-4.3,7.1-4.3,11.9v0.2c0,3,0.7,5.8,2.1,8.4
		c1.4,2.5,3.3,4.6,5.7,6.2c2.4,1.6,5.2,2.3,8.3,2.3c4.8,0,8.6-1.6,11.5-4.8s4.3-7.1,4.3-11.8V577
		C1305.1,573.8,1304.4,571,1303.1,568.5z"/>
	<path d="M1372.2,606.3c-3.8,1.9-8.5,2.8-14.2,2.8c-6,0-11.4-1.4-16.2-4.2c-4.8-2.8-8.6-6.6-11.4-11.5c-2.8-4.8-4.2-10.1-4.2-15.9
		v-0.2c0-5.8,1.4-11.1,4.1-16s6.6-8.7,11.5-11.6c4.9-2.8,10.4-4.3,16.5-4.3c5.5,0,10.2,0.9,14.1,2.6c3.8,1.7,7.3,4.3,10.3,7.6
		l-10.6,11.4c-2.1-2.3-4.3-4-6.4-5.1s-4.6-1.7-7.5-1.7c-2.8,0-5.3,0.8-7.6,2.3c-2.2,1.5-4,3.6-5.3,6.1s-1.9,5.3-1.9,8.3v0.2
		c0,4.8,1.4,8.8,4.3,12c2.8,3.2,6.6,4.8,11.2,4.8c2.7,0,5.2-0.5,7.3-1.6c2.2-1.1,4.4-2.7,6.7-4.9l10.1,10.3
		C1379.6,601.7,1376,604.4,1372.2,606.3z"/>
	<path d="M1409.8,570.1c-3.2,3.6-4.8,9-4.8,16.1v22.6h-17.3v-61.1h17.3V560c1.9-4.5,4.4-7.9,7.5-10.3c3.1-2.4,7.1-3.4,12-3.2v18.1
		h-0.9C1417.6,564.7,1413,566.5,1409.8,570.1z"/>
	<path d="M1429.9,547.4h14.7v61.1h-14.7V547.4z"/>
	<path d="M1480.1,538.6c-4.2,0-6.3,2.2-6.3,6.6v2.4h14v14.1H1474V608h-17.3v-46.3h-7.2v-14.2h7.2v-3.9c0-13.1,6.3-19.6,18.9-19.6
		c4.6,0,8.7,0.6,12.3,1.7v14.4C1485.2,539.1,1482.6,538.6,1480.1,538.6z"/>
	<path d="M1513,623.6c-3,2.5-7,3.8-12.1,3.8c-3,0-5.7-0.4-8.1-1.1c-2.5-0.7-4.9-1.8-7.2-3.1l5.8-12.5c2.7,1.6,5.1,2.4,7.4,2.4
		c1.5,0,2.7-0.3,3.6-0.9c0.9-0.6,1.7-1.6,2.4-3.1l-23.9-61.3h18.3l13.9,41.6l13.3-41.6h18l-23.5,62.6
		C1518.7,616.6,1516,621,1513,623.6z"/>
</g>
<path class="st1" d="M1254.7,603.6"/>
<path class="st2" d="M1173.9,597"/>
<path class="st1" d="M1437.6,526.3"/>
<path class="st2" d="M1437.6,526.3C1437.7,526.3,1437.7,526.3,1437.6,526.3"/>
<g transform="translate(0.000000,1280.000000) scale(0.100000,-0.100000)">
	<path d="M11580.6,7163.6c1.5,5.4,2,15.4,1,19.3"/>
</g>
<g>
	<path class="st3" d="M1254.8,595.4"/>
</g>
<g>
	<path class="st4" d="M1168.6,595.6"/>
</g>
<circle class="st4" cx="1437.5" cy="531.4" r="10.6"/>
<polyline id="XMLID_35_" points="1194.7,547.4 1194.7,596.2 1177.9,596.2 1177.9,547.4 "/>
<path id="XMLID_34_" class="st3" d="M1169.7,605.4c2.7,4.7,10.3,6.2,17,3c6.7-3.2,9.8-9.5,7.2-14.2c-2.7-4.7-10.3-6.2-17-3
	C1170.2,594.1,1166.9,600.6,1169.7,605.4"/>
<polyline id="XMLID_33_" points="1185.9,547.4 1246.8,547.4 1246.8,560.8 1185.9,560.8 "/>
<g>
	<path d="M1084.6,602.2c-5.1,7-11.8,10.4-20,10.4c-5.1,0-9.9-1.3-14.4-3.9c-4.5-2.6-8.1-6.4-10.8-11.5c-2.7-5-4.1-11-4.1-17.9v-0.2
		c0-6.9,1.3-12.8,4-17.9c2.7-5,6.3-8.9,10.7-11.5c4.5-2.6,9.3-3.9,14.5-3.9c4.5,0,8.3,0.9,11.5,2.6c3.2,1.7,6,4.1,8.5,7v-31.7h18.2
		v87.6h-18.2V602.2z M1082.7,569.9c-1.4-2.7-3.3-4.8-5.6-6.3c-2.4-1.5-5-2.2-7.9-2.2c-2.9,0-5.5,0.7-7.9,2.2
		c-2.4,1.5-4.3,3.6-5.7,6.2c-1.4,2.7-2.1,5.8-2.1,9.3v0.2c0,3.4,0.7,6.5,2.1,9.2c1.4,2.7,3.3,4.8,5.7,6.3c2.4,1.5,5,2.2,7.9,2.2
		c2.9,0,5.5-0.7,7.9-2.2c2.4-1.5,4.2-3.6,5.6-6.3c1.4-2.7,2.1-5.8,2.1-9.2v-0.2C1084.8,575.7,1084.1,572.6,1082.7,569.9z"/>
</g>
<polyline id="XMLID_44_" points="1223.7,547.4 1223.7,596.2 1206.9,596.2 1206.9,547.4 "/>
<path id="XMLID_43_" class="st4" d="M1198.7,605.4c2.7,4.7,10.3,6.2,17,3c6.7-3.2,9.8-9.5,7.2-14.2c-2.7-4.7-10.3-6.2-17-3
	C1199.2,594.1,1195.9,600.6,1198.7,605.4"/>
<polyline id="XMLID_30_" points="1252.7,547.4 1252.7,596.2 1235.9,596.2 1235.9,547.4 "/>
<path id="XMLID_29_" class="st3" d="M1227.7,605.4c2.7,4.7,10.3,6.2,17,3c6.7-3.2,9.8-9.5,7.2-14.2c-2.7-4.7-10.3-6.2-17-3
	C1228.2,594.1,1224.9,600.6,1227.7,605.4"/>
</svg>
